Coordinates
version=1
nRows=10
nColumns=40
inDegrees=yes

Units are S.I. units (second, meters, Newtons, ...)
Angles are in degrees.

endheader
time	pelvis_tilt	pelvis_list	pelvis_rotation	pelvis_tx	pelvis_ty	pelvis_tz	hip_flexion_r	hip_adduction_r	hip_rotation_r	knee_angle_r	knee_angle_r_beta	ankle_angle_r	subtalar_angle_r	mtp_angle_r	hip_flexion_l	hip_adduction_l	hip_rotation_l	knee_angle_l	knee_angle_l_beta	ankle_angle_l	subtalar_angle_l	mtp_angle_l	lumbar_extension	lumbar_bending	lumbar_rotation	arm_flex_r	arm_add_r	arm_rot_r	elbow_flex_r	pro_sup_r	wrist_flex_r	wrist_dev_r	arm_flex_l	arm_add_l	arm_rot_l	elbow_flex_l	pro_sup_l	wrist_flex_l	wrist_dev_l
     13.19250000	     -2.51465593	     -5.20265217	     -1.51130692	      0.87480978	      0.92523976	      0.47056435	     19.20485572	      2.56790981	    -13.58532002	     19.10583517	     19.10583517	      5.60648295	      0.11934994	     -5.01454657	      6.01477402	     -9.59889216	     -7.59643739	     39.88038843	     39.88038843	     14.45479784	    -16.00585075	     -4.31476318	     -7.29193232	      5.41795043	      1.28130245	     -5.68923264	    -12.04459594	     -7.39304159	     23.95434120	     46.80770016	      0.00000000	      0.00000000	     19.14838383	    -13.74451930	    -10.05624919	     73.65150044	     47.09006342	      0.00000000	      0.00000000
     13.20428571	     -2.37098702	     -5.42376892	     -1.15059516	      0.87439331	      0.92617578	      0.47214682	     18.33668835	      2.87040970	    -13.98420727	     18.69339773	     18.69339773	      5.96066183	      0.39781263	     -5.15164545	      7.96490038	    -10.21720552	     -6.54679478	     43.92664975	     43.92664975	     12.98125462	    -16.97549220	     -4.08682844	     -7.57955782	      5.75236545	      1.52934909	     -3.85181052	    -12.20137437	     -7.29997022	     24.53017299	     46.79221544	      0.00000000	      0.00000000	     18.51329966	    -13.09164426	     -9.66561398	     72.80662078	     47.05028860	      0.00000000	      0.00000000
     13.21607143	     -2.42312385	     -5.46255539	     -0.77816204	      0.87382112	      0.92679482	      0.47329280	     17.65558244	      2.93136875	    -14.50494647	     18.19469920	     18.19469920	      6.08592470	      0.92518857	     -5.97795816	     10.40044144	    -10.37706284	     -5.12409175	     48.29429039	     48.29429039	     13.30809006	    -17.31227451	      0.88028752	     -7.46882913	      5.96607443	      1.75794864	     -2.01123639	    -12.46402776	     -6.53448748	     24.65037755	     46.73080929	      0.00000000	      0.00000000	     18.38682974	    -12.45320847	     -8.84519139	     69.58555150	     46.99537031	      0.00000000	      0.00000000
     13.22785714	     -2.33711881	     -5.63010987	     -0.40885033	      0.87319394	      0.92742428	      0.47448932	     16.89007705	      3.17236764	    -14.87757196	     17.81116107	     17.81116107	      6.38755696	      1.11937185	     -6.08560428	     12.51629280	    -10.73553102	     -3.99371241	     52.01319428	     52.01319428	     12.05766962	    -17.89129928	      1.36148174	     -7.65334341	      6.28352287	      1.91736138	     -0.17033452	    -12.73004233	     -6.51281308	     25.41760206	     46.71224774	      0.00000000	      0.00000000	     17.48856297	    -11.93549726	     -8.43976005	     68.59392636	     46.95053774	      0.00000000	      0.00000000
     13.23964286	     -2.20191177	     -5.71071523	     -0.12883989	      0.87251213	      0.92806694	      0.47563163	     16.11826400	      3.33543986	    -15.11145275	     17.50728110	     17.50728110	      6.69901185	      1.33372549	     -6.23538554	     14.53108139	    -10.93694842	     -3.00867739	     55.41616601	     55.41616601	     11.12310535	    -18.26079202	      2.06188997	     -7.90514662	      6.46038688	      2.12389810	      1.83913123	    -13.01427087	     -6.47880348	     26.18547753	     46.69433915	      0.00000000	      0.00000000	     16.66473730	    -11.33949348	     -7.99107286	     67.34309192	     46.89743648	      0.00000000	      0.00000000
     13.25142857	     -2.15396687	     -5.65311205	      0.21132058	      0.87167854	      0.92863561	      0.47636626	     15.43368659	      3.30369978	    -15.46483571	     17.16207122	     17.16207122	      6.86341708	      1.62206823	     -6.80789564	     16.78153461	    -10.72129817	     -1.79388548	     58.76335208	     58.76335208	     11.87971336	    -18.26799109	      6.90319422	     -7.91858023	      6.61179371	      2.12080716	      3.96922028	    -13.28724283	     -6.12103872	     26.76041073	     46.65312673	      0.00000000	      0.00000000	     16.60017308	    -10.98581924	     -7.10329023	     63.03951419	     46.79075504	      0.00000000	      0.00000000
     13.26321429	     -2.05214393	     -5.75456945	      0.42561989	      0.87082105	      0.92910259	      0.47742737	     14.76005990	      3.50630009	    -15.58384918	     16.93165989	     16.93165989	      7.13273794	      1.69058030	     -6.88386391	     18.76445102	    -10.88995265	     -1.04245936	     61.41163036	     61.41163036	     11.34060608	    -18.37527802	      7.24129192	     -8.18353940	      6.79009940	      2.76719074	      5.76672731	    -13.70506614	     -6.11421716	     27.43947437	     46.63884962	      0.00000000	      0.00000000	     15.72733811	    -10.14322982	     -6.66966977	     62.21349459	     46.73966891	      0.00000000	      0.00000000
     13.27500000	     -2.02401056	     -5.75661302	      0.72661301	      0.86983964	      0.92956102	      0.47823751	     14.12415862	      3.59978097	    -15.71076405	     16.58932887	     16.58932887	      7.25809738	      1.64883406	     -7.32201947	     20.90832692	    -10.74052922	     -0.12937507	     63.82232194	     63.82232194	     12.21200642	    -18.29870683	     11.05885470	     -8.20581878	      6.92828400	      3.33997898	      7.63041259	    -14.12123511	     -5.83286040	     27.81831619	     46.60471326	      0.00000000	      0.00000000	     15.90745703	     -9.47075659	     -5.58369649	     57.89113893	     46.62076906	      0.00000000	      0.00000000
     13.28678571	     -1.95332325	     -5.78309279	      0.99166305	      0.86887782	      0.93007404	      0.47916218	     13.44737293	      3.74513483	    -15.77471839	     16.25970472	     16.25970472	      7.49270309	      1.61604111	     -7.38666933	     22.78578601	    -10.74273465	      0.47695490	     65.47307265	     65.47307265	     12.08740729	    -18.38605853	     11.55261492	     -8.38049409	      7.02845468	      3.38738184	      9.75971593	    -14.36295910	     -5.88429517	     28.74437886	     46.58166964	      0.00000000	      0.00000000	     14.89062183	     -9.12584093	     -5.08540153	     56.05274052	     46.55628670	      0.00000000	      0.00000000
     13.29857143	     -1.91990260	     -5.81643466	      1.28004958	      0.86784278	      0.93056312	      0.48002599	     12.79945631	      3.89999874	    -15.86929071	     15.89174070	     15.89174070	      7.67969272	      1.53059236	     -7.41105428	     24.62983563	    -10.73264693	      1.00766502	     66.60897144	     66.60897144	     12.06748928	    -18.49852034	     11.98640556	     -8.48822822	      7.14203304	      3.49277470	     11.88671093	    -14.58145667	     -5.89520696	     29.45839784	     46.56560614	      0.00000000	      0.00000000	     13.99461476	     -8.73676670	     -4.62174353	     53.86870180	     46.48920606	      0.00000000	      0.00000000
